<svg height="2.595966mm" viewBox="0 0 12.926484 2.5959661" width="12.926484mm" xmlns="http://www.w3.org/2000/svg"><g clip-rule="evenodd" fill="none" fill-rule="evenodd" transform="matrix(.24399582 0 0 .24399582 0 .586664)"><path d="m8.67015 6.38056h-1.63231l1.0203-6.268499h1.63231z" fill="#005c9c"/><path d="m5.66521.112174-1.55602 4.311236-.18394-.92841.00017.00033-.5493-2.818597s-.06623-.564559-.77415-.564559h-2.5719563l-.0300137.10597s.786727.16365 1.70692.716807l1.41785 5.445549h1.70039l2.59643-6.268326zm11.04049 4.051006.8577-2.34593.4824 2.34593zm1.7958 2.21732h1.4985l-1.3065-6.268326h-1.3121c-.6059 0-.7533.46714-.7533.46714l-2.4338 5.801186h1.7009l.3403-.93092h2.0747zm-4.1796-4.76094.2327-1.346251s-.7186-.273309-1.4678-.273309c-.8099 0-2.7329.354128-2.7329 2.07513 0 1.61957 2.257 1.63969 2.257 2.48997 0 .85027-2.0245.69836-2.69247.16197l-.24279 1.40729s.72856.35413 1.84226.35413c1.1135 0 2.7938-.57697 2.7938-2.14607 0-1.62979-2.2776-1.78153-2.2776-2.49012s1.5894-.61755 2.2878-.23274z" fill="#005c9c"/><path d="m3.92542 3.49522-.5493-2.818601s-.06623-.564558-.77415-.564558h-2.5719563l-.0300137.10597s1.23626.256373 2.42222 1.216139c1.13348.91751 1.5032 2.06105 1.5032 2.06105z" fill="#ee9f3f"/></g><g fill="none" transform="matrix(.1419478 0 0 .1419478 5.940253 .437664)"><path d="m6.31565 12.8435c3.48804 0 6.31565-2.87513 6.31565-6.42176s-2.82761-6.42174-6.31565-6.42174-6.31565 2.87511-6.31565 6.42174 2.82761 6.42176 6.31565 6.42176z" fill="#ff2f05"/><path d="m13.6843 12.9504c3.488 0 6.3157-2.8751 6.3157-6.42173s-2.8277-6.421736-6.3157-6.421736-6.31565 2.875106-6.31565 6.421736 2.82765 6.42173 6.31565 6.42173z" fill="#ffbc37"/><path clip-rule="evenodd" d="m10.0924 1.24658c1.5415 1.1709 2.5394 3.04074 2.5394 5.14755 0 2.18968-1.078 4.12337-2.72377 5.28247-1.54146-1.1709-2.53938-3.04076-2.53938-5.14757 0-2.18968 1.07797-4.12338 2.72375-5.28245z" fill="#ff8729" fill-rule="evenodd"/></g><g fill="#0087b1" transform="matrix(.14045991 0 0 .14045991 10.117328 0)"><path d="m19.0489 13.5912h-1.5381v-.0866c-.1813.0866-.3617.0866-.543.0866h-4.7058v-.7794h-.0899v.7794h-1.5389v-.866c-.2632.0853-.5381.1291-.8148.1299h-.1348v.7361h-1.81076s-.27109-.3031-.45231-.4763c-.13555.1732-.45232.4763-.45232.4763h-2.85094v-3.1602h2.89587s.31677.3464.498.5196c.18122-.1732.49725-.5196.49725-.5196h2.08181c.0899 0 .3168 0 .543.0866v-.0866h1.9006c.0899 0 .3168 0 .5879.0866v-.0866h2.8052v.0866c.2718-.0866.498-.0866.5429-.0866h1.5839v.0866c.2718-.0866.498-.0866.5429-.0866h1.1308v-10.431h-19.682468v8.09424l.679223-1.51553h1.447565l.18122.38971v-.38971h1.7194s.27109.56291.3617.82272c.13555-.25981.36246-.82272.36246-.82272h5.2937c.0899 0 .3168.00001.5879.08661v-.08661h1.5389v.17321c.2262-.1299.4973-.21651.7234-.21651 0 0 .8148 0 .8597.0433h1.4483s.1356.34641.1813.38971v-.38971h1.5831s.2261.34641.2718.38971v-.38971h1.5382v3.16021h-1.5382s-.2262-.34641-.2718-.43301v.43301h-1.9456s-.1805-.38971-.2261-.47631h-.498c-.045.0866-.2262.47631-.2262.47631h-1.3113c-.1812 0-.3617-.0866-.5429-.17321v.21651h-2.44355v-.77941h-.08987v.77941h-4.75306c0-.0433-1.13079 0-1.13079 0s0-.0433-.04493-.0433l-1.9463.0433s-.18123-.38971-.22616-.47631h-.49725c-.04493.1299-.226158.47631-.226158.47631h-.904632v8.69968h19.6825v-4.9773c-.0899.0433-.3168.0866-.543.0866h-.0898z"/><path d="m10.3611 9.26179v-.43226s-.045-.3464-.40666-.3464h-.58861v.77941h-.58786v-2.29419h1.49323s.7691-.0866.7691.69281c0 .38971-.3625.51886-.3625.51886s.3168.1299.3168.51961v.56291h-.6335zm-.99527-1.34083h.63354c.18123 0 .31673-.0866.31673-.2165s-.1355-.2165-.31673-.2165h-.63354zm8.23527 1.34083-.9503-1.55733v1.55808h-1.2214l-.2269-.47631h-1.1308l-.2261.47631h-.9054s-.814-.1299-.814-1.08252c0-1.29827.9503-1.21167.9503-1.25423h.7691v.51887h-.6336s-.4074 0-.4523.5196v.17321c0 .77866.7234.51886.7234.51886l.7698-1.73128h.8597l.9047 2.07768v-2.07768h.8597l.9503 1.51552v-1.51552h.6335v2.29419h-.8597zm-3.2576-1.03847h.5879l-.2718-.69206-.3168.69206zm-8.77817 1.03847v-1.59988l-.76909 1.60137h-.498l-.76908-1.60212v1.60138h-1.2229l-.22616-.47631h-1.129293l-.226158.47631h-.6799713l.9959923-2.29419h.8597l.94956 2.12173v-2.12024h.95107l.67847 1.42743.67847-1.42817h.95032v2.29418h-.54293zm-4.2985-1.03772h.58786l-.31677-.69207zm5.29374 1.03772v-2.29269h1.90063v.5629h-1.31277v.34641h1.26709v.51886h-1.26709v.38971h1.31277v.4763h-1.90138zm4.70593 0v-2.29269h.6335v2.29418h-.6335zm1.4475 3.89631v-.433s-.0449-.3464-.4066-.3464h-.5886v.7794h-.6336v-2.2942h1.4933s.7691-.0866.7691.6928c0 .3897-.3617.5189-.3617.5189s.271.1299.271.5196v.5629zm-.9952-1.299h.6335c.1812 0 .3168-.0859.3168-.2165 0-.1292-.1356-.2165-.3168-.2165h-.6335zm-3.07713 1.299h-.54292l-.63355-.6928-.63354.6928h-2.26233v-2.2942h2.2174l.67847.7361.72416-.7361h1.94554s.7691-.0866.7691.6928c0 .6921-.2711.9086-1.04092.9086h-.58786v.7361h-.63355zm-.7234-1.1258.76909.8227v-1.6014zm-2.76033.6495h1.26709l.58786-.6495-.58786-.6495h-1.26709v.3471h1.26709v.5189h-1.26709zm4.11728-.866h.63354c.18124 0 .31674-.0859.31674-.2165 0-.1292-.1355-.2165-.31674-.2165h-.63354zm7.60178 1.3423h-1.0859v-.5196h.9503s.3617.0433.3617-.1732-.4972-.1732-.4972-.1732-.8597.0866-.8597-.6921c0-.7361.7691-.6928.7691-.6928h1.1757v.5196h-.9496s-.3167-.0433-.3167.1732c0 .1732.4523.1732.4523.1732s.9503-.0866.9503.6055c0 .7361-.5886.8227-.8148.8227-.0899-.0433-.1348-.0433-.1348-.0433zm-3.2576 0v-2.2942h1.8999v.5629h-1.2664v.3464h1.2664v.5189h-1.2664v.3897h1.2664v.4763zm5.4293 0h-1.0859v-.5196h.9511s.3609.0433.3609-.1732-.4972-.1732-.4972-.1732-.8597.0866-.8597-.6921c0-.7361.7691-.6928.7691-.6928h1.1757v.5196h-.9496s-.3167-.0433-.3167.1732c0 .1732.4523.1732.4523.1732s.951-.0866.951.6055c0 .7361-.5886.8227-.8147.8227-.0906-.0433-.1363-.0433-.1363-.0433z"/></g></svg>